<svg width="80" height="34" viewBox="0 0 80 34" fill="none" xmlns="http://www.w3.org/2000/svg">
<g filter="url(#filter0_f_104_17)">
<path d="M66.3536 17.3536C66.5488 17.1583 66.5488 16.8417 66.3536 16.6465L63.1716 13.4645C62.9763 13.2692 62.6597 13.2692 62.4645 13.4645C62.2692 13.6597 62.2692 13.9763 62.4645 14.1716L65.2929 17L62.4645 19.8284C62.2692 20.0237 62.2692 20.3403 62.4645 20.5355C62.6597 20.7308 62.9763 20.7308 63.1716 20.5355L66.3536 17.3536ZM14 17.5L66 17.5L66 16.5L14 16.5L14 17.5Z" fill="#00EDFF"/>
</g>
<g filter="url(#filter1_f_104_17)">
<path d="M66.3536 17.3536C66.5488 17.1583 66.5488 16.8417 66.3536 16.6465L63.1716 13.4645C62.9763 13.2692 62.6597 13.2692 62.4645 13.4645C62.2692 13.6597 62.2692 13.9763 62.4645 14.1716L65.2929 17L62.4645 19.8284C62.2692 20.0237 62.2692 20.3403 62.4645 20.5355C62.6597 20.7308 62.9763 20.7308 63.1716 20.5355L66.3536 17.3536ZM14 17.5L66 17.5L66 16.5L14 16.5L14 17.5Z" fill="#00EDFF"/>
</g>
<g filter="url(#filter2_f_104_17)">
<path d="M66.3536 17.3536C66.5488 17.1583 66.5488 16.8417 66.3536 16.6465L63.1716 13.4645C62.9763 13.2692 62.6597 13.2692 62.4645 13.4645C62.2692 13.6597 62.2692 13.9763 62.4645 14.1716L65.2929 17L62.4645 19.8284C62.2692 20.0237 62.2692 20.3403 62.4645 20.5355C62.6597 20.7308 62.9763 20.7308 63.1716 20.5355L66.3536 17.3536ZM14 17.5L66 17.5L66 16.5L14 16.5L14 17.5Z" fill="#00EDFF"/>
</g>
<g filter="url(#filter3_f_104_17)">
<path d="M66.3536 17.3536C66.5488 17.1583 66.5488 16.8417 66.3536 16.6465L63.1716 13.4645C62.9763 13.2692 62.6597 13.2692 62.4645 13.4645C62.2692 13.6597 62.2692 13.9763 62.4645 14.1716L65.2929 17L62.4645 19.8284C62.2692 20.0237 62.2692 20.3403 62.4645 20.5355C62.6597 20.7308 62.9763 20.7308 63.1716 20.5355L66.3536 17.3536ZM14 17.5L66 17.5L66 16.5L14 16.5L14 17.5Z" fill="#00EDFF"/>
</g>
<path d="M66.3536 17.3536C66.5488 17.1583 66.5488 16.8417 66.3536 16.6465L63.1716 13.4645C62.9763 13.2692 62.6597 13.2692 62.4645 13.4645C62.2692 13.6597 62.2692 13.9763 62.4645 14.1716L65.2929 17L62.4645 19.8284C62.2692 20.0237 62.2692 20.3403 62.4645 20.5355C62.6597 20.7308 62.9763 20.7308 63.1716 20.5355L66.3536 17.3536ZM14 17.5L66 17.5L66 16.5L14 16.5L14 17.5Z" fill="#91F7FF"/>
<defs>
<filter id="filter0_f_104_17" x="0.68286" y="0.000853539" width="79.1343" height="33.9983" filterUnits="userSpaceOnUse" color-interpolation-filters="sRGB">
<feFlood flood-opacity="0" result="BackgroundImageFix"/>
<feBlend mode="normal" in="SourceGraphic" in2="BackgroundImageFix" result="shape"/>
<feGaussianBlur stdDeviation="6.65857" result="effect1_foregroundBlur_104_17"/>
</filter>
<filter id="filter1_f_104_17" x="6.00972" y="5.32771" width="68.4806" height="23.3446" filterUnits="userSpaceOnUse" color-interpolation-filters="sRGB">
<feFlood flood-opacity="0" result="BackgroundImageFix"/>
<feBlend mode="normal" in="SourceGraphic" in2="BackgroundImageFix" result="shape"/>
<feGaussianBlur stdDeviation="3.99514" result="effect1_foregroundBlur_104_17"/>
</filter>
<filter id="filter2_f_104_17" x="8.67314" y="7.99114" width="63.1537" height="18.0177" filterUnits="userSpaceOnUse" color-interpolation-filters="sRGB">
<feFlood flood-opacity="0" result="BackgroundImageFix"/>
<feBlend mode="normal" in="SourceGraphic" in2="BackgroundImageFix" result="shape"/>
<feGaussianBlur stdDeviation="2.66343" result="effect1_foregroundBlur_104_17"/>
</filter>
<filter id="filter3_f_104_17" x="11.3366" y="10.6546" width="57.8269" height="12.6909" filterUnits="userSpaceOnUse" color-interpolation-filters="sRGB">
<feFlood flood-opacity="0" result="BackgroundImageFix"/>
<feBlend mode="normal" in="SourceGraphic" in2="BackgroundImageFix" result="shape"/>
<feGaussianBlur stdDeviation="1.33171" result="effect1_foregroundBlur_104_17"/>
</filter>
</defs>
</svg>
