<svg width="80" height="34" viewBox="0 0 80 34" fill="none" xmlns="http://www.w3.org/2000/svg">
<g filter="url(#filter0_f_104_9)">
<path d="M13.6464 17.3536C13.4512 17.1583 13.4512 16.8417 13.6464 16.6465L16.8284 13.4645C17.0237 13.2692 17.3403 13.2692 17.5355 13.4645C17.7308 13.6597 17.7308 13.9763 17.5355 14.1716L14.7071 17L17.5355 19.8284C17.7308 20.0237 17.7308 20.3403 17.5355 20.5355C17.3403 20.7308 17.0237 20.7308 16.8284 20.5355L13.6464 17.3536ZM66 17.5L14 17.5L14 16.5L66 16.5L66 17.5Z" fill="#00EDFF"/>
</g>
<g filter="url(#filter1_f_104_9)">
<path d="M13.6464 17.3536C13.4512 17.1583 13.4512 16.8417 13.6464 16.6465L16.8284 13.4645C17.0237 13.2692 17.3403 13.2692 17.5355 13.4645C17.7308 13.6597 17.7308 13.9763 17.5355 14.1716L14.7071 17L17.5355 19.8284C17.7308 20.0237 17.7308 20.3403 17.5355 20.5355C17.3403 20.7308 17.0237 20.7308 16.8284 20.5355L13.6464 17.3536ZM66 17.5L14 17.5L14 16.5L66 16.5L66 17.5Z" fill="#00EDFF"/>
</g>
<g filter="url(#filter2_f_104_9)">
<path d="M13.6464 17.3536C13.4512 17.1583 13.4512 16.8417 13.6464 16.6465L16.8284 13.4645C17.0237 13.2692 17.3403 13.2692 17.5355 13.4645C17.7308 13.6597 17.7308 13.9763 17.5355 14.1716L14.7071 17L17.5355 19.8284C17.7308 20.0237 17.7308 20.3403 17.5355 20.5355C17.3403 20.7308 17.0237 20.7308 16.8284 20.5355L13.6464 17.3536ZM66 17.5L14 17.5L14 16.5L66 16.5L66 17.5Z" fill="#00EDFF"/>
</g>
<g filter="url(#filter3_f_104_9)">
<path d="M13.6464 17.3536C13.4512 17.1583 13.4512 16.8417 13.6464 16.6465L16.8284 13.4645C17.0237 13.2692 17.3403 13.2692 17.5355 13.4645C17.7308 13.6597 17.7308 13.9763 17.5355 14.1716L14.7071 17L17.5355 19.8284C17.7308 20.0237 17.7308 20.3403 17.5355 20.5355C17.3403 20.7308 17.0237 20.7308 16.8284 20.5355L13.6464 17.3536ZM66 17.5L14 17.5L14 16.5L66 16.5L66 17.5Z" fill="#00EDFF"/>
</g>
<path d="M13.6464 17.3536C13.4512 17.1583 13.4512 16.8417 13.6464 16.6465L16.8284 13.4645C17.0237 13.2692 17.3403 13.2692 17.5355 13.4645C17.7308 13.6597 17.7308 13.9763 17.5355 14.1716L14.7071 17L17.5355 19.8284C17.7308 20.0237 17.7308 20.3403 17.5355 20.5355C17.3403 20.7308 17.0237 20.7308 16.8284 20.5355L13.6464 17.3536ZM66 17.5L14 17.5L14 16.5L66 16.5L66 17.5Z" fill="#91F7FF"/>
<defs>
<filter id="filter0_f_104_9" x="0.18286" y="0.000853539" width="79.1343" height="33.9983" filterUnits="userSpaceOnUse" color-interpolation-filters="sRGB">
<feFlood flood-opacity="0" result="BackgroundImageFix"/>
<feBlend mode="normal" in="SourceGraphic" in2="BackgroundImageFix" result="shape"/>
<feGaussianBlur stdDeviation="6.65857" result="effect1_foregroundBlur_104_9"/>
</filter>
<filter id="filter1_f_104_9" x="5.50972" y="5.32771" width="68.4806" height="23.3446" filterUnits="userSpaceOnUse" color-interpolation-filters="sRGB">
<feFlood flood-opacity="0" result="BackgroundImageFix"/>
<feBlend mode="normal" in="SourceGraphic" in2="BackgroundImageFix" result="shape"/>
<feGaussianBlur stdDeviation="3.99514" result="effect1_foregroundBlur_104_9"/>
</filter>
<filter id="filter2_f_104_9" x="8.17314" y="7.99114" width="63.1537" height="18.0177" filterUnits="userSpaceOnUse" color-interpolation-filters="sRGB">
<feFlood flood-opacity="0" result="BackgroundImageFix"/>
<feBlend mode="normal" in="SourceGraphic" in2="BackgroundImageFix" result="shape"/>
<feGaussianBlur stdDeviation="2.66343" result="effect1_foregroundBlur_104_9"/>
</filter>
<filter id="filter3_f_104_9" x="10.8366" y="10.6546" width="57.8269" height="12.6909" filterUnits="userSpaceOnUse" color-interpolation-filters="sRGB">
<feFlood flood-opacity="0" result="BackgroundImageFix"/>
<feBlend mode="normal" in="SourceGraphic" in2="BackgroundImageFix" result="shape"/>
<feGaussianBlur stdDeviation="1.33171" result="effect1_foregroundBlur_104_9"/>
</filter>
</defs>
</svg>
