<svg width="134" height="45" viewBox="0 0 134 45" fill="none" xmlns="http://www.w3.org/2000/svg">
<g filter="url(#filter0_f_0_11125)">
<path d="M23.0737 22.0255L17.5961 18.9159C17.5076 18.8667 17.4076 18.8408 17.3058 18.8408C17.2041 18.8408 17.1041 18.8667 17.0156 18.9159C16.928 18.9661 16.8554 19.0379 16.8048 19.1243C16.7543 19.2106 16.7276 19.3085 16.7275 19.4081V25.6315C16.7266 25.7308 16.7528 25.8284 16.8035 25.9142C16.8542 26 16.9274 26.0709 17.0156 26.1193C17.1049 26.169 17.2054 26.1959 17.3081 26.1977C17.4091 26.1949 17.508 26.168 17.5961 26.1193L23.0737 23.0098C23.1612 22.9606 23.2339 22.8896 23.2845 22.804C23.3351 22.7183 23.3618 22.621 23.3618 22.522C23.3615 22.4218 23.3349 22.3234 23.2844 22.2364C23.2339 22.1494 23.1613 22.0767 23.0737 22.0255ZM22.8078 22.5568L17.3258 25.6664L17.2549 25.6315V19.3863L17.3258 19.3471L22.8078 22.461V22.5568Z" fill="#23FCFD"/>
</g>
<g filter="url(#filter1_f_0_11125)">
<path d="M28.445 21.6293L15.2385 14.1341C15.0827 14.0462 14.9063 14 14.7266 14C14.547 14 14.3706 14.0462 14.2148 14.1341C14.0587 14.2216 13.9292 14.3485 13.8396 14.5016C13.75 14.6547 13.7036 14.8285 13.7051 15.0051V29.9955C13.7031 30.1722 13.7493 30.3462 13.839 30.4994C13.9286 30.6526 14.0584 30.7794 14.2148 30.8665C14.3693 30.9579 14.5463 31.0062 14.7266 31.0062C14.907 31.0062 15.084 30.9579 15.2385 30.8665L28.445 23.3714C28.6017 23.2845 28.7317 23.1578 28.8214 23.0046C28.9111 22.8513 28.9571 22.6771 28.9546 22.5003C28.9553 22.3239 28.9085 22.1504 28.819 21.9975C28.7295 21.8445 28.6005 21.7175 28.445 21.6293ZM28.1791 22.9097L14.9726 30.4093C14.898 30.4521 14.8131 30.4747 14.7266 30.4747C14.6402 30.4747 14.5553 30.4521 14.4807 30.4093C14.4036 30.3657 14.3403 30.3019 14.298 30.2249C14.2558 30.148 14.2361 30.061 14.2414 29.9737V15.0008C14.2366 14.9136 14.2565 14.8268 14.2987 14.75C14.3409 14.6731 14.4039 14.6092 14.4807 14.5653C14.5573 14.5257 14.6424 14.5048 14.7289 14.5043C14.8138 14.506 14.8972 14.5269 14.9726 14.5653L28.1791 22.0648C28.2572 22.108 28.3217 22.1715 28.3655 22.2483C28.4092 22.3251 28.4306 22.4123 28.4273 22.5003C28.4249 22.582 28.4007 22.6616 28.3571 22.7311C28.3136 22.8007 28.2522 22.8578 28.1791 22.8966V22.9097Z" fill="#23FCFD"/>
</g>
<g filter="url(#filter2_f_0_11125)">
<path d="M25.7417 21.8163L16.4352 16.5292C16.3137 16.4608 16.1762 16.4248 16.0363 16.4248C15.8964 16.4248 15.7589 16.4608 15.6374 16.5292C15.5158 16.5977 15.4148 16.6966 15.3447 16.816C15.2747 16.9353 15.2381 17.0708 15.2386 17.2086V27.7872C15.2379 27.9244 15.2745 28.0593 15.3446 28.178C15.4148 28.2967 15.5158 28.3948 15.6374 28.4622C15.759 28.5345 15.8986 28.5722 16.0407 28.5711C16.1799 28.5709 16.3163 28.5332 16.4352 28.4622L25.7417 23.1751C25.8633 23.1072 25.9645 23.0091 26.0352 22.8906C26.106 22.7721 26.1439 22.6374 26.145 22.5C26.1445 22.3614 26.107 22.2252 26.0363 22.1053C25.9655 21.9853 25.8639 21.8856 25.7417 21.8163ZM25.4803 22.7222L16.1737 28.0093C16.1341 28.0346 16.0879 28.0481 16.0407 28.0481C15.9935 28.0481 15.9473 28.0346 15.9078 28.0093C15.8677 27.9871 15.8343 27.9548 15.8109 27.9158C15.7876 27.8768 15.7751 27.8324 15.7748 27.7872V17.2086C15.7752 17.1628 15.7877 17.1178 15.811 17.0781C15.8343 17.0385 15.8676 17.0054 15.9078 16.9821C15.9482 16.9592 15.9941 16.9471 16.0407 16.9471C16.0874 16.9471 16.1333 16.9592 16.1737 16.9821L25.4803 22.2692C25.5205 22.2931 25.5537 22.327 25.5762 22.3676C25.5988 22.4081 25.61 22.4538 25.6088 22.5C25.6094 22.545 25.5978 22.5892 25.5752 22.6283C25.5526 22.6673 25.5198 22.6997 25.4803 22.7222Z" fill="#23FCFD"/>
</g>
<g filter="url(#filter3_f_0_11125)">
<path d="M23.0737 22.0255L17.5961 18.9159C17.5076 18.8667 17.4076 18.8408 17.3058 18.8408C17.2041 18.8408 17.1041 18.8667 17.0156 18.9159C16.928 18.9661 16.8554 19.0379 16.8048 19.1243C16.7543 19.2106 16.7276 19.3085 16.7275 19.4081V25.6315C16.7266 25.7308 16.7528 25.8284 16.8035 25.9142C16.8542 26 16.9274 26.0709 17.0156 26.1193C17.1049 26.169 17.2054 26.1959 17.3081 26.1977C17.4091 26.1949 17.508 26.168 17.5961 26.1193L23.0737 23.0098C23.1612 22.9606 23.2339 22.8896 23.2845 22.804C23.3351 22.7183 23.3618 22.621 23.3618 22.522C23.3615 22.4218 23.3349 22.3234 23.2844 22.2364C23.2339 22.1494 23.1613 22.0767 23.0737 22.0255ZM22.8078 22.5568L17.3258 25.6664L17.2549 25.6315V19.3863L17.3258 19.3471L22.8078 22.461V22.5568Z" fill="#23FCFD"/>
</g>
<path d="M28.445 21.6293L15.2385 14.1341C15.0827 14.0462 14.9063 14 14.7266 14C14.547 14 14.3706 14.0462 14.2148 14.1341C14.0587 14.2216 13.9292 14.3485 13.8396 14.5016C13.75 14.6547 13.7036 14.8285 13.7051 15.0051V29.9955C13.7031 30.1722 13.7493 30.3462 13.839 30.4994C13.9286 30.6526 14.0584 30.7794 14.2148 30.8665C14.3693 30.9579 14.5463 31.0062 14.7266 31.0062C14.907 31.0062 15.084 30.9579 15.2385 30.8665L28.445 23.3714C28.6017 23.2845 28.7317 23.1578 28.8214 23.0046C28.9111 22.8513 28.9571 22.6771 28.9546 22.5003C28.9553 22.3239 28.9085 22.1504 28.819 21.9975C28.7295 21.8445 28.6005 21.7175 28.445 21.6293ZM28.1791 22.9097L14.9726 30.4093C14.898 30.4521 14.8131 30.4747 14.7266 30.4747C14.6402 30.4747 14.5553 30.4521 14.4807 30.4093C14.4036 30.3657 14.3403 30.3019 14.298 30.2249C14.2558 30.148 14.2361 30.061 14.2414 29.9737V15.0008C14.2366 14.9136 14.2565 14.8268 14.2987 14.75C14.3409 14.6731 14.4039 14.6092 14.4807 14.5653C14.5573 14.5257 14.6424 14.5048 14.7289 14.5043C14.8138 14.506 14.8972 14.5269 14.9726 14.5653L28.1791 22.0648C28.2572 22.108 28.3217 22.1715 28.3655 22.2483C28.4092 22.3251 28.4306 22.4123 28.4273 22.5003C28.4249 22.582 28.4007 22.6616 28.3571 22.7311C28.3136 22.8007 28.2522 22.8578 28.1791 22.8966V22.9097Z" fill="#23FCFD"/>
<g filter="url(#filter4_f_0_11125)">
<path d="M28.445 21.6293L15.2385 14.1341C15.0827 14.0462 14.9063 14 14.7266 14C14.547 14 14.3706 14.0462 14.2148 14.1341C14.0587 14.2216 13.9292 14.3485 13.8396 14.5016C13.75 14.6547 13.7036 14.8285 13.7051 15.0051V29.9955C13.7031 30.1722 13.7493 30.3462 13.839 30.4994C13.9286 30.6526 14.0584 30.7794 14.2148 30.8665C14.3693 30.9579 14.5463 31.0062 14.7266 31.0062C14.907 31.0062 15.084 30.9579 15.2385 30.8665L28.445 23.3714C28.6017 23.2845 28.7317 23.1578 28.8214 23.0046C28.9111 22.8513 28.9571 22.6771 28.9546 22.5003C28.9553 22.3239 28.9085 22.1504 28.819 21.9975C28.7295 21.8445 28.6005 21.7175 28.445 21.6293ZM28.1791 22.9097L14.9726 30.4093C14.898 30.4521 14.8131 30.4747 14.7266 30.4747C14.6402 30.4747 14.5553 30.4521 14.4807 30.4093C14.4036 30.3657 14.3403 30.3019 14.298 30.2249C14.2558 30.148 14.2361 30.061 14.2414 29.9737V15.0008C14.2366 14.9136 14.2565 14.8268 14.2987 14.75C14.3409 14.6731 14.4039 14.6092 14.4807 14.5653C14.5573 14.5257 14.6424 14.5048 14.7289 14.5043C14.8138 14.506 14.8972 14.5269 14.9726 14.5653L28.1791 22.0648C28.2572 22.108 28.3217 22.1715 28.3655 22.2483C28.4092 22.3251 28.4306 22.4123 28.4273 22.5003C28.4249 22.582 28.4007 22.6616 28.3571 22.7311C28.3136 22.8007 28.2522 22.8578 28.1791 22.8966V22.9097Z" fill="#23FCFD"/>
</g>
<path d="M25.7417 21.8163L16.4352 16.5292C16.3137 16.4608 16.1762 16.4248 16.0363 16.4248C15.8964 16.4248 15.7589 16.4608 15.6374 16.5292C15.5158 16.5977 15.4148 16.6966 15.3447 16.816C15.2747 16.9353 15.2381 17.0708 15.2386 17.2086V27.7872C15.2379 27.9244 15.2745 28.0593 15.3446 28.178C15.4148 28.2967 15.5158 28.3948 15.6374 28.4622C15.759 28.5345 15.8986 28.5722 16.0407 28.5711C16.1799 28.5709 16.3163 28.5332 16.4352 28.4622L25.7417 23.1751C25.8633 23.1072 25.9645 23.0091 26.0352 22.8906C26.106 22.7721 26.1439 22.6374 26.145 22.5C26.1445 22.3614 26.107 22.2252 26.0363 22.1053C25.9655 21.9853 25.8639 21.8856 25.7417 21.8163ZM25.4803 22.7222L16.1737 28.0093C16.1341 28.0346 16.0879 28.0481 16.0407 28.0481C15.9935 28.0481 15.9473 28.0346 15.9078 28.0093C15.8677 27.9871 15.8343 27.9548 15.8109 27.9158C15.7876 27.8768 15.7751 27.8324 15.7748 27.7872V17.2086C15.7752 17.1628 15.7877 17.1178 15.811 17.0781C15.8343 17.0385 15.8676 17.0054 15.9078 16.9821C15.9482 16.9592 15.9941 16.9471 16.0407 16.9471C16.0874 16.9471 16.1333 16.9592 16.1737 16.9821L25.4803 22.2692C25.5205 22.2931 25.5537 22.327 25.5762 22.3676C25.5988 22.4081 25.61 22.4538 25.6088 22.5C25.6094 22.545 25.5978 22.5892 25.5752 22.6283C25.5526 22.6673 25.5198 22.6997 25.4803 22.7222Z" fill="#23FCFD"/>
<path d="M23.0737 22.0255L17.5961 18.9159C17.5076 18.8667 17.4076 18.8408 17.3058 18.8408C17.2041 18.8408 17.1041 18.8667 17.0156 18.9159C16.928 18.9661 16.8554 19.0379 16.8048 19.1243C16.7543 19.2106 16.7276 19.3085 16.7275 19.4081V25.6315C16.7266 25.7308 16.7528 25.8284 16.8035 25.9142C16.8542 26 16.9274 26.0709 17.0156 26.1193C17.1049 26.169 17.2054 26.1959 17.3081 26.1977C17.4091 26.1949 17.508 26.168 17.5961 26.1193L23.0737 23.0098C23.1612 22.9606 23.2339 22.8896 23.2845 22.804C23.3351 22.7183 23.3618 22.621 23.3618 22.522C23.3615 22.4218 23.3349 22.3234 23.2844 22.2364C23.2339 22.1494 23.1613 22.0767 23.0737 22.0255ZM22.8078 22.5568L17.3258 25.6664L17.2549 25.6315V19.3863L17.3258 19.3471L22.8078 22.461V22.5568Z" fill="#23FCFD"/>
<path d="M109.873 22.1174C112.088 20.9589 112.86 19.1559 112.137 17.1133C111.834 16.2988 111.278 15.5983 110.548 15.1107C109.818 14.6231 108.951 14.373 108.069 14.3957C105.21 14.3957 102.352 14.3957 99.4936 14.3652C98.9706 14.3652 99.0504 14.6265 99.0504 14.9401V26.9037C99.0504 27.9184 99.0504 28.9288 99.0504 29.9523C99.0504 30.2702 99.1346 30.3878 99.4936 30.3878C102.596 30.3268 105.671 30.5054 108.76 30.2832C109.715 30.2417 110.625 29.876 111.337 29.2487C112.048 28.6213 112.515 27.771 112.66 26.8427C112.93 24.5998 111.964 22.8969 109.873 22.1174ZM102.582 17.7187C102.582 17.4704 102.613 17.3398 102.919 17.3485C104.315 17.3485 105.716 17.3485 107.112 17.3485C107.551 17.3794 107.961 17.5763 108.257 17.8977C108.552 18.2192 108.709 18.6405 108.695 19.0732C108.681 19.506 108.498 19.9168 108.183 20.2196C107.868 20.5224 107.446 20.6936 107.005 20.6976C106.354 20.6976 105.676 20.6976 105.038 20.6976C104.399 20.6976 103.642 20.6976 102.937 20.6976C102.667 20.6976 102.574 20.6366 102.582 20.3579C102.597 19.4869 102.597 18.6071 102.582 17.7187ZM108.964 26.1894C108.855 26.5179 108.64 26.8029 108.353 27.0022C108.065 27.2015 107.72 27.3044 107.369 27.2956C106.629 27.3261 103.752 27.2956 103.057 27.3261C102.636 27.3522 102.565 27.2042 102.574 26.8427C102.6 25.9281 102.596 25.0222 102.574 24.1164C102.574 23.8289 102.596 23.6809 102.968 23.6809C104.298 23.6809 105.68 23.6809 107.036 23.6809C108.543 23.7331 109.429 24.909 108.964 26.1894Z" fill="white"/>
<path d="M48.4591 17.1436C47.5151 15.3144 45.8311 14.5697 43.8235 14.5305C41.3861 14.4739 38.9486 14.5305 36.5201 14.5C35.9838 14.5 35.9085 14.6698 35.9173 15.1228C35.9173 17.5834 35.9173 20.0397 35.9173 22.5004C35.9173 24.961 35.9173 27.5001 35.9173 29.9999C35.9173 30.3614 35.9794 30.5138 36.396 30.5008C37.238 30.4659 38.0889 30.4659 38.9398 30.5008C39.3608 30.5008 39.4716 30.3788 39.4671 29.9738C39.4671 28.4669 39.4671 26.9557 39.4671 25.4488C39.4671 24.9523 39.5469 24.7781 40.1009 24.7955C41.4304 24.8434 42.7599 24.8565 44.0894 24.7955C44.8968 24.8023 45.6932 24.6107 46.406 24.238C47.1188 23.8653 47.7256 23.3234 48.171 22.6615C48.7364 21.8591 49.0629 20.9176 49.1138 19.9428C49.1647 18.9681 48.9379 17.9987 48.4591 17.1436ZM43.8368 21.6903C42.4763 21.9211 41.0936 21.7513 39.7197 21.7861C39.4716 21.7861 39.4627 21.6424 39.4627 21.4595C39.4627 20.2618 39.4627 19.0642 39.4627 17.8665C39.4627 17.5965 39.6001 17.5791 39.8128 17.5791H41.6608C42.2946 17.5791 42.9283 17.5442 43.562 17.5791C44.061 17.6231 44.5275 17.8406 44.878 18.1924C45.2284 18.5442 45.4396 19.0072 45.4738 19.4983C45.508 19.9895 45.3628 20.4765 45.0644 20.8719C44.766 21.2673 44.3338 21.5451 43.8457 21.6555L43.8368 21.6903Z" fill="white"/>
<path d="M86.3938 25.2746C86.3938 22.7356 86.4204 20.3882 86.3938 18.0407C86.3938 17.4354 86.54 17.2525 87.156 17.3091C87.8111 17.3548 88.4687 17.3548 89.1237 17.3091C89.5669 17.2829 89.6866 17.4092 89.6866 17.8491C89.6644 20.558 89.6866 23.2669 89.6866 25.9758C89.6866 27.3172 89.6866 28.6629 89.6866 30.0043C89.6866 30.3832 89.5758 30.54 89.1858 30.4877C89.0174 30.4659 87.0453 30.6793 86.4293 30.3832C85.8132 30.087 85.4498 29.2857 84.9757 28.7021C83.4364 26.812 81.8971 24.9247 80.3578 23.0404C80.2603 22.9185 80.1495 22.8052 79.9412 22.5744V24.5517C79.9412 26.3503 79.9412 28.149 79.9412 29.9477C79.9412 30.3832 79.826 30.5269 79.374 30.5051C78.6117 30.4703 77.8495 30.5051 77.0872 30.5051C76.7681 30.5051 76.644 30.4441 76.644 30.1001C76.644 25.9656 76.644 21.8311 76.644 17.6967C76.644 17.3788 76.7504 17.3178 77.0429 17.3221C77.8938 17.3221 78.7402 17.3526 79.5867 17.3221C79.9723 17.3221 80.0919 17.5704 80.2692 17.7838L85.9196 24.7171C86.0215 24.8478 86.1456 24.9872 86.3938 25.2746Z" fill="white"/>
<path d="M130.738 22.8489C131.651 22.8489 132.564 22.8489 133.473 22.8489C133.836 22.8489 134.004 22.9055 134 23.3149C133.978 24.8044 134 26.2938 134 27.7833C134.008 27.874 133.997 27.9654 133.967 28.0516C133.938 28.1379 133.89 28.2171 133.827 28.2841C130.393 31.8335 124.077 31.2369 121.702 27.3608C119.327 23.4848 121.077 17.7795 126.834 16.9825C129.493 16.6254 131.709 17.3092 133.481 19.33C133.761 19.6522 133.734 19.796 133.344 19.9876C132.706 20.3055 132.099 20.6801 131.487 21.0415C131.243 21.1809 131.102 21.2332 130.858 20.9718C130.335 20.3801 129.633 19.9686 128.854 19.7977C128.076 19.6269 127.262 19.7056 126.533 20.0224C125.805 20.3096 125.184 20.8067 124.75 21.4482C124.317 22.0897 124.091 22.8454 124.104 23.6154C124.104 25.793 125.265 27.3391 127.326 27.7441C127.866 27.8569 128.424 27.8558 128.963 27.741C129.502 27.6261 130.011 27.4 130.455 27.0777C130.685 26.9122 130.867 25.7712 130.69 25.597C130.512 25.4228 130.415 25.5317 130.273 25.5317C129.533 25.5317 128.788 25.5317 128.057 25.5317C127.689 25.5317 127.521 25.4794 127.547 25.0657C127.583 24.4855 127.583 23.9038 127.547 23.3236C127.547 22.9534 127.623 22.8184 128.035 22.8315C128.917 22.8707 129.83 22.8489 130.738 22.8489Z" fill="white"/>
<path d="M75.7178 30.3003C73.9717 26.0932 72.2167 21.8905 70.4839 17.6704C70.4488 17.5537 70.3709 17.454 70.2653 17.3905C70.1597 17.3269 70.034 17.3041 69.9123 17.3263C68.9151 17.3263 67.918 17.3568 66.9209 17.3263C66.7385 17.298 66.5519 17.3376 66.3977 17.4376C66.2435 17.5375 66.133 17.6904 66.0877 17.8664C64.6252 21.4332 63.1362 24.9914 61.656 28.5539C61.3481 29.1802 61.1004 29.8334 60.9159 30.505H63.1317C64.5543 30.505 64.5543 30.5049 65.0773 29.1679C65.1396 29.0395 65.1929 28.9071 65.2368 28.7716C65.3166 28.4319 65.5071 28.3361 65.8705 28.3361C66.974 28.3622 70.6568 28.1009 71.1576 28.458C71.6007 28.7716 71.6849 29.5425 71.9242 30.1086C71.9436 30.146 71.9584 30.1855 71.9686 30.2262C72.0007 30.3227 72.0662 30.405 72.1535 30.4591C72.2409 30.5132 72.3448 30.5355 72.4472 30.5224C73.5241 30.5224 74.6099 30.5224 75.7089 30.5224C75.7207 30.4489 75.7236 30.3744 75.7178 30.3003ZM66.3669 25.5575C67.0139 23.9243 67.6476 22.3347 68.3168 20.6493C68.986 22.3304 69.6198 23.9331 70.2712 25.5575H66.3669Z" fill="white"/>
<path d="M51.0728 23.8768C51.0728 21.8691 51.0728 19.8657 51.0728 17.8623C51.0728 17.4268 51.1792 17.2874 51.6312 17.3136C52.3934 17.3484 53.1557 17.3484 53.9179 17.3136C54.3345 17.3136 54.3966 17.4442 54.3921 17.8057C54.3921 20.9066 54.3921 24.0031 54.3921 27.1039C54.3921 27.5394 54.4719 27.6962 54.9683 27.6875C56.5991 27.6527 58.23 27.6875 59.8431 27.6657C60.2331 27.6657 60.3616 27.7659 60.3439 28.1492C60.3129 28.7894 60.3218 29.4296 60.3439 30.0698C60.3439 30.3964 60.2376 30.5053 59.9007 30.5053C57.1043 30.5053 54.3079 30.5053 51.5115 30.5053C51.1082 30.5053 51.0684 30.3398 51.0684 30.0219C51.0772 27.9662 51.0728 25.9455 51.0728 23.8768Z" fill="white"/>
<path d="M118.368 23.951C118.368 25.9543 118.368 27.9577 118.368 29.9611C118.368 30.3966 118.239 30.5185 117.8 30.4967C117.038 30.4619 116.276 30.4967 115.514 30.4967C115.19 30.4967 115.07 30.414 115.07 30.0612C115.07 25.9558 115.07 21.8475 115.07 17.7362C115.07 17.3486 115.234 17.3007 115.562 17.3007C116.325 17.3007 117.087 17.3268 117.849 17.3007C118.266 17.2789 118.372 17.4052 118.368 17.8059C118.359 19.8484 118.368 21.9084 118.368 23.951Z" fill="white"/>
<defs>
<filter id="filter0_f_0_11125" x="3.65203" y="5.76537" width="32.7852" height="33.5078" filterUnits="userSpaceOnUse" color-interpolation-filters="sRGB">
<feFlood flood-opacity="0" result="BackgroundImageFix"/>
<feBlend mode="normal" in="SourceGraphic" in2="BackgroundImageFix" result="shape"/>
<feGaussianBlur stdDeviation="6.53772" result="effect1_foregroundBlur_0_11125"/>
</filter>
<filter id="filter1_f_0_11125" x="11.09" y="11.3849" width="20.4798" height="22.2365" filterUnits="userSpaceOnUse" color-interpolation-filters="sRGB">
<feFlood flood-opacity="0" result="BackgroundImageFix"/>
<feBlend mode="normal" in="SourceGraphic" in2="BackgroundImageFix" result="shape"/>
<feGaussianBlur stdDeviation="1.30754" result="effect1_foregroundBlur_0_11125"/>
</filter>
<filter id="filter2_f_0_11125" x="12.6235" y="13.8097" width="16.1366" height="17.3767" filterUnits="userSpaceOnUse" color-interpolation-filters="sRGB">
<feFlood flood-opacity="0" result="BackgroundImageFix"/>
<feBlend mode="normal" in="SourceGraphic" in2="BackgroundImageFix" result="shape"/>
<feGaussianBlur stdDeviation="1.30754" result="effect1_foregroundBlur_0_11125"/>
</filter>
<filter id="filter3_f_0_11125" x="14.1124" y="16.2257" width="11.8645" height="12.5871" filterUnits="userSpaceOnUse" color-interpolation-filters="sRGB">
<feFlood flood-opacity="0" result="BackgroundImageFix"/>
<feBlend mode="normal" in="SourceGraphic" in2="BackgroundImageFix" result="shape"/>
<feGaussianBlur stdDeviation="1.30754" result="effect1_foregroundBlur_0_11125"/>
</filter>
<filter id="filter4_f_0_11125" x="0.629629" y="0.924551" width="41.4005" height="43.1572" filterUnits="userSpaceOnUse" color-interpolation-filters="sRGB">
<feFlood flood-opacity="0" result="BackgroundImageFix"/>
<feBlend mode="normal" in="SourceGraphic" in2="BackgroundImageFix" result="shape"/>
<feGaussianBlur stdDeviation="6.53772" result="effect1_foregroundBlur_0_11125"/>
</filter>
</defs>
</svg>
