<svg width="103" height="34" viewBox="0 0 103 34" fill="none" xmlns="http://www.w3.org/2000/svg">
<g filter="url(#filter0_f_0_11125)">
<path d="M17.1651 16.1378L12.9758 13.7596C12.9081 13.7219 12.8317 13.7021 12.7538 13.7021C12.676 13.7021 12.5996 13.7219 12.5318 13.7596C12.4649 13.798 12.4093 13.8529 12.3707 13.9189C12.332 13.985 12.3116 14.0598 12.3115 14.136V18.8956C12.3108 18.9715 12.3309 19.0462 12.3697 19.1118C12.4084 19.1775 12.4645 19.2316 12.5318 19.2687C12.6002 19.3067 12.6771 19.3273 12.7555 19.3286C12.8328 19.3265 12.9084 19.3059 12.9758 19.2687L17.1651 16.8905C17.232 16.8529 17.2876 16.7986 17.3263 16.7331C17.365 16.6676 17.3854 16.5932 17.3854 16.5175C17.3852 16.4409 17.3648 16.3656 17.3262 16.2991C17.2876 16.2325 17.2321 16.1769 17.1651 16.1378ZM16.9617 16.5441L12.7691 18.9223L12.7149 18.8956V14.1193L12.7691 14.0893L16.9617 16.4708V16.5441Z" fill="#23FCFD"/>
</g>
<g filter="url(#filter1_f_0_11125)">
<path d="M21.273 15.8348L11.1728 10.1026C11.0536 10.0354 10.9187 10 10.7813 10C10.6439 10 10.509 10.0354 10.3898 10.1026C10.2704 10.1695 10.1714 10.2665 10.1029 10.3836C10.0344 10.5007 9.99886 10.6337 10 10.7687V22.2332C9.99851 22.3684 10.0338 22.5014 10.1024 22.6186C10.1709 22.7358 10.2702 22.8327 10.3898 22.8994C10.508 22.9693 10.6433 23.0062 10.7813 23.0062C10.9192 23.0062 11.0546 22.9693 11.1728 22.8994L21.273 17.1671C21.3928 17.1007 21.4923 17.0038 21.5609 16.8866C21.6294 16.7694 21.6646 16.6362 21.6627 16.501C21.6632 16.366 21.6274 16.2334 21.559 16.1164C21.4905 15.9994 21.3919 15.9023 21.273 15.8348ZM21.0696 16.8141L10.9694 22.5497C10.9123 22.5824 10.8474 22.5997 10.7813 22.5997C10.7152 22.5997 10.6503 22.5824 10.5932 22.5497C10.5342 22.5163 10.4858 22.4675 10.4535 22.4087C10.4212 22.3499 10.4061 22.2833 10.4102 22.2166V10.7654C10.4065 10.6987 10.4217 10.6323 10.454 10.5736C10.4863 10.5148 10.5345 10.4659 10.5932 10.4323C10.6517 10.4021 10.7168 10.3861 10.783 10.3857C10.8479 10.387 10.9117 10.4029 10.9694 10.4323L21.0696 16.1679C21.1293 16.2009 21.1787 16.2495 21.2121 16.3082C21.2456 16.367 21.262 16.4337 21.2594 16.501C21.2576 16.5634 21.2391 16.6243 21.2058 16.6775C21.1724 16.7307 21.1255 16.7743 21.0696 16.8041V16.8141Z" fill="#23FCFD"/>
</g>
<g filter="url(#filter2_f_0_11125)">
<path d="M19.2056 15.9779L12.088 11.9343C11.9951 11.882 11.89 11.8545 11.7829 11.8545C11.6759 11.8545 11.5708 11.882 11.4779 11.9343C11.3849 11.9867 11.3076 12.0624 11.254 12.1537C11.2005 12.2449 11.1724 12.3485 11.1729 12.4539V20.5443C11.1723 20.6493 11.2003 20.7525 11.254 20.8432C11.3076 20.934 11.3849 21.009 11.4779 21.0606C11.5709 21.1159 11.6777 21.1448 11.7863 21.1439C11.8927 21.1437 11.997 21.1149 12.088 21.0606L19.2056 17.0171C19.2985 16.9651 19.3759 16.8901 19.4301 16.7995C19.4842 16.7089 19.5131 16.6059 19.514 16.5008C19.5136 16.3947 19.485 16.2906 19.4308 16.1989C19.3767 16.1071 19.299 16.0309 19.2056 15.9779ZM19.0056 16.6707L11.888 20.7142C11.8578 20.7336 11.8224 20.7439 11.7863 20.7439C11.7502 20.7439 11.7149 20.7336 11.6846 20.7142C11.654 20.6972 11.6284 20.6725 11.6106 20.6427C11.5927 20.6129 11.5832 20.579 11.583 20.5443V12.4539C11.5833 12.4189 11.5928 12.3845 11.6106 12.3542C11.6284 12.3238 11.6539 12.2985 11.6846 12.2807C11.7156 12.2632 11.7506 12.2539 11.7863 12.2539C11.822 12.2539 11.8571 12.2632 11.888 12.2807L19.0056 16.3243C19.0364 16.3425 19.0617 16.3685 19.079 16.3995C19.0963 16.4305 19.1049 16.4655 19.1039 16.5008C19.1044 16.5351 19.0955 16.569 19.0782 16.5988C19.0609 16.6287 19.0359 16.6535 19.0056 16.6707Z" fill="#23FCFD"/>
</g>
<g filter="url(#filter3_f_0_11125)">
<path d="M17.1651 16.1378L12.9758 13.7596C12.9081 13.7219 12.8317 13.7021 12.7538 13.7021C12.676 13.7021 12.5996 13.7219 12.5318 13.7596C12.4649 13.798 12.4093 13.8529 12.3707 13.9189C12.332 13.985 12.3116 14.0598 12.3115 14.136V18.8956C12.3108 18.9715 12.3309 19.0462 12.3697 19.1118C12.4084 19.1775 12.4645 19.2316 12.5318 19.2687C12.6002 19.3067 12.6771 19.3273 12.7555 19.3286C12.8328 19.3265 12.9084 19.3059 12.9758 19.2687L17.1651 16.8905C17.232 16.8529 17.2876 16.7986 17.3263 16.7331C17.365 16.6676 17.3854 16.5932 17.3854 16.5175C17.3852 16.4409 17.3648 16.3656 17.3262 16.2991C17.2876 16.2325 17.2321 16.1769 17.1651 16.1378ZM16.9617 16.5441L12.7691 18.9223L12.7149 18.8956V14.1193L12.7691 14.0893L16.9617 16.4708V16.5441Z" fill="#23FCFD"/>
</g>
<path d="M21.273 15.8348L11.1728 10.1026C11.0536 10.0354 10.9187 10 10.7813 10C10.6439 10 10.509 10.0354 10.3898 10.1026C10.2704 10.1695 10.1714 10.2665 10.1029 10.3836C10.0344 10.5007 9.99886 10.6337 10 10.7687V22.2332C9.99851 22.3684 10.0338 22.5014 10.1024 22.6186C10.1709 22.7358 10.2702 22.8327 10.3898 22.8994C10.508 22.9693 10.6433 23.0062 10.7813 23.0062C10.9192 23.0062 11.0546 22.9693 11.1728 22.8994L21.273 17.1671C21.3928 17.1007 21.4923 17.0038 21.5609 16.8866C21.6294 16.7694 21.6646 16.6362 21.6627 16.501C21.6632 16.366 21.6274 16.2334 21.559 16.1164C21.4905 15.9994 21.3919 15.9023 21.273 15.8348ZM21.0696 16.8141L10.9694 22.5497C10.9123 22.5824 10.8474 22.5997 10.7813 22.5997C10.7152 22.5997 10.6503 22.5824 10.5932 22.5497C10.5342 22.5163 10.4858 22.4675 10.4535 22.4087C10.4212 22.3499 10.4061 22.2833 10.4102 22.2166V10.7654C10.4065 10.6987 10.4217 10.6323 10.454 10.5736C10.4863 10.5148 10.5345 10.4659 10.5932 10.4323C10.6517 10.4021 10.7168 10.3861 10.783 10.3857C10.8479 10.387 10.9117 10.4029 10.9694 10.4323L21.0696 16.1679C21.1293 16.2009 21.1787 16.2495 21.2121 16.3082C21.2456 16.367 21.262 16.4337 21.2594 16.501C21.2576 16.5634 21.2391 16.6243 21.2058 16.6775C21.1724 16.7307 21.1255 16.7743 21.0696 16.8041V16.8141Z" fill="#23FCFD"/>
<g filter="url(#filter4_f_0_11125)">
<path d="M21.273 15.8348L11.1728 10.1026C11.0536 10.0354 10.9187 10 10.7813 10C10.6439 10 10.509 10.0354 10.3898 10.1026C10.2704 10.1695 10.1714 10.2665 10.1029 10.3836C10.0344 10.5007 9.99886 10.6337 10 10.7687V22.2332C9.99851 22.3684 10.0338 22.5014 10.1024 22.6186C10.1709 22.7358 10.2702 22.8327 10.3898 22.8994C10.508 22.9693 10.6433 23.0062 10.7813 23.0062C10.9192 23.0062 11.0546 22.9693 11.1728 22.8994L21.273 17.1671C21.3928 17.1007 21.4923 17.0038 21.5609 16.8866C21.6294 16.7694 21.6646 16.6362 21.6627 16.501C21.6632 16.366 21.6274 16.2334 21.559 16.1164C21.4905 15.9994 21.3919 15.9023 21.273 15.8348ZM21.0696 16.8141L10.9694 22.5497C10.9123 22.5824 10.8474 22.5997 10.7813 22.5997C10.7152 22.5997 10.6503 22.5824 10.5932 22.5497C10.5342 22.5163 10.4858 22.4675 10.4535 22.4087C10.4212 22.3499 10.4061 22.2833 10.4102 22.2166V10.7654C10.4065 10.6987 10.4217 10.6323 10.454 10.5736C10.4863 10.5148 10.5345 10.4659 10.5932 10.4323C10.6517 10.4021 10.7168 10.3861 10.783 10.3857C10.8479 10.387 10.9117 10.4029 10.9694 10.4323L21.0696 16.1679C21.1293 16.2009 21.1787 16.2495 21.2121 16.3082C21.2456 16.367 21.262 16.4337 21.2594 16.501C21.2576 16.5634 21.2391 16.6243 21.2058 16.6775C21.1724 16.7307 21.1255 16.7743 21.0696 16.8041V16.8141Z" fill="#23FCFD"/>
</g>
<path d="M19.2056 15.9779L12.088 11.9343C11.9951 11.882 11.89 11.8545 11.7829 11.8545C11.6759 11.8545 11.5708 11.882 11.4779 11.9343C11.3849 11.9867 11.3076 12.0624 11.254 12.1537C11.2005 12.2449 11.1724 12.3485 11.1729 12.4539V20.5443C11.1723 20.6493 11.2003 20.7525 11.254 20.8432C11.3076 20.934 11.3849 21.009 11.4779 21.0606C11.5709 21.1159 11.6777 21.1448 11.7863 21.1439C11.8927 21.1437 11.997 21.1149 12.088 21.0606L19.2056 17.0171C19.2985 16.9651 19.3759 16.8901 19.4301 16.7995C19.4842 16.7089 19.5131 16.6059 19.514 16.5008C19.5136 16.3947 19.485 16.2906 19.4308 16.1989C19.3767 16.1071 19.299 16.0309 19.2056 15.9779ZM19.0056 16.6707L11.888 20.7142C11.8578 20.7336 11.8224 20.7439 11.7863 20.7439C11.7502 20.7439 11.7149 20.7336 11.6846 20.7142C11.654 20.6972 11.6284 20.6725 11.6106 20.6427C11.5927 20.6129 11.5832 20.579 11.583 20.5443V12.4539C11.5833 12.4189 11.5928 12.3845 11.6106 12.3542C11.6284 12.3238 11.6539 12.2985 11.6846 12.2807C11.7156 12.2632 11.7506 12.2539 11.7863 12.2539C11.822 12.2539 11.8571 12.2632 11.888 12.2807L19.0056 16.3243C19.0364 16.3425 19.0617 16.3685 19.079 16.3995C19.0963 16.4305 19.1049 16.4655 19.1039 16.5008C19.1044 16.5351 19.0955 16.569 19.0782 16.5988C19.0609 16.6287 19.0359 16.6535 19.0056 16.6707Z" fill="#23FCFD"/>
<path d="M17.1651 16.1378L12.9758 13.7596C12.9081 13.7219 12.8317 13.7021 12.7538 13.7021C12.676 13.7021 12.5996 13.7219 12.5318 13.7596C12.4649 13.798 12.4093 13.8529 12.3707 13.9189C12.332 13.985 12.3116 14.0598 12.3115 14.136V18.8956C12.3108 18.9715 12.3309 19.0462 12.3697 19.1118C12.4084 19.1775 12.4645 19.2316 12.5318 19.2687C12.6002 19.3067 12.6771 19.3273 12.7555 19.3286C12.8328 19.3265 12.9084 19.3059 12.9758 19.2687L17.1651 16.8905C17.232 16.8529 17.2876 16.7986 17.3263 16.7331C17.365 16.6676 17.3854 16.5932 17.3854 16.5175C17.3852 16.4409 17.3648 16.3656 17.3262 16.2991C17.2876 16.2325 17.2321 16.1769 17.1651 16.1378ZM16.9617 16.5441L12.7691 18.9223L12.7149 18.8956V14.1193L12.7691 14.0893L16.9617 16.4708V16.5441Z" fill="#23FCFD"/>
<path d="M83.5482 16.2081C85.2428 15.3221 85.8326 13.9431 85.2801 12.381C85.0482 11.758 84.6232 11.2223 84.065 10.8494C83.5067 10.4765 82.8435 10.2853 82.1687 10.3026C79.9826 10.3026 77.7965 10.3026 75.6103 10.2793C75.2104 10.2793 75.2714 10.4791 75.2714 10.719V19.8686C75.2714 20.6447 75.2714 21.4174 75.2714 22.2001C75.2714 22.4433 75.3358 22.5332 75.6103 22.5332C77.9829 22.4866 80.3351 22.6231 82.6974 22.4533C83.4276 22.4215 84.1239 22.1418 84.6678 21.662C85.2117 21.1822 85.5694 20.5319 85.68 19.822C85.8868 18.1066 85.1479 16.8043 83.5482 16.2081ZM77.9727 12.844C77.9727 12.6541 77.9964 12.5542 78.2303 12.5609C79.2979 12.5609 80.369 12.5609 81.4366 12.5609C81.7727 12.5845 82.0865 12.7351 82.3122 12.9809C82.5379 13.2268 82.6581 13.549 82.6476 13.8799C82.6371 14.2109 82.4967 14.5251 82.2558 14.7567C82.0149 14.9882 81.6922 15.1192 81.3553 15.1222C80.857 15.1222 80.3385 15.1222 79.8504 15.1222C79.3623 15.1222 78.7828 15.1222 78.2439 15.1222C78.0371 15.1222 77.9659 15.0756 77.9727 14.8624C77.984 14.1963 77.984 13.5235 77.9727 12.844ZM82.8533 19.3223C82.7696 19.5736 82.6057 19.7915 82.3859 19.9439C82.166 20.0963 81.9021 20.175 81.6332 20.1684C81.0672 20.1917 78.8675 20.1684 78.3354 20.1917C78.0134 20.2117 77.9591 20.0984 77.9659 19.822C77.9863 19.1225 77.9829 18.4297 77.9659 17.7369C77.9659 17.5171 77.9829 17.4038 78.2676 17.4038C79.2844 17.4038 80.3418 17.4038 81.379 17.4038C82.5314 17.4438 83.2092 18.3431 82.8533 19.3223Z" fill="white"/>
<path d="M36.5796 12.4041C35.8577 11.0052 34.5697 10.4356 33.0344 10.4056C31.1702 10.3623 29.3061 10.4056 27.4488 10.3823C27.0386 10.3823 26.981 10.5122 26.9878 10.8586C26.9878 12.7405 26.9878 14.6191 26.9878 16.5009C26.9878 18.3828 26.9878 20.3247 26.9878 22.2365C26.9878 22.513 27.0353 22.6296 27.3539 22.6196C27.9978 22.5929 28.6486 22.5929 29.2993 22.6196C29.6213 22.6196 29.7061 22.5263 29.7027 22.2166C29.7027 21.0641 29.7027 19.9083 29.7027 18.7559C29.7027 18.3762 29.7637 18.2429 30.1873 18.2563C31.2041 18.2929 32.2209 18.3029 33.2377 18.2563C33.8552 18.2615 34.4643 18.1149 35.0094 17.8298C35.5546 17.5448 36.0186 17.1304 36.3593 16.6242C36.7917 16.0105 37.0414 15.2904 37.0804 14.5449C37.1193 13.7995 36.9459 13.0581 36.5796 12.4041ZM33.0445 15.8814C32.004 16.058 30.9465 15.9281 29.8959 15.9547C29.706 15.9547 29.6993 15.8448 29.6993 15.7049C29.6993 14.7889 29.6993 13.873 29.6993 12.957C29.6993 12.7505 29.8043 12.7372 29.967 12.7372H31.3804C31.8651 12.7372 32.3497 12.7105 32.8344 12.7372C33.216 12.7709 33.5728 12.9372 33.8408 13.2062C34.1088 13.4753 34.2704 13.8294 34.2965 14.205C34.3227 14.5806 34.2116 14.9531 33.9834 15.2555C33.7552 15.5579 33.4247 15.7704 33.0513 15.8548L33.0445 15.8814Z" fill="white"/>
<path d="M65.5918 18.6229C65.5918 16.681 65.6121 14.8858 65.5918 13.0905C65.5918 12.6275 65.7036 12.4876 66.1747 12.5309C66.6757 12.5659 67.1786 12.5659 67.6796 12.5309C68.0185 12.5109 68.1101 12.6075 68.1101 12.9439C68.0931 15.0157 68.1101 17.0874 68.1101 19.1591C68.1101 20.185 68.1101 21.2142 68.1101 22.2401C68.1101 22.5299 68.0253 22.6498 67.7271 22.6098C67.5983 22.5932 66.09 22.7564 65.6189 22.5299C65.1478 22.3034 64.8699 21.6905 64.5072 21.2442C63.33 19.7986 62.1527 18.3553 60.9755 16.9142C60.9009 16.8209 60.8162 16.7343 60.6569 16.5578V18.07C60.6569 19.4456 60.6569 20.8212 60.6569 22.1968C60.6569 22.5299 60.5688 22.6398 60.2231 22.6231C59.6401 22.5965 59.0572 22.6231 58.4742 22.6231C58.2302 22.6231 58.1353 22.5765 58.1353 22.3134C58.1353 19.1514 58.1353 15.9893 58.1353 12.8273C58.1353 12.5842 58.2166 12.5376 58.4403 12.5409C59.0911 12.5409 59.7384 12.5642 60.3858 12.5409C60.6806 12.5409 60.7722 12.7307 60.9077 12.8939L65.2291 18.1965C65.3071 18.2965 65.402 18.403 65.5918 18.6229Z" fill="white"/>
<path d="M99.5061 16.7676C100.204 16.7676 100.902 16.7676 101.597 16.7676C101.875 16.7676 102.004 16.8109 102.001 17.124C101.984 18.2632 102.001 19.4023 102.001 20.5414C102.007 20.6108 101.998 20.6807 101.976 20.7467C101.953 20.8126 101.916 20.8732 101.868 20.9244C99.2417 23.639 94.4119 23.1827 92.5952 20.2183C90.7785 17.2539 92.1173 12.8906 96.5201 12.2811C98.5537 12.008 100.248 12.5309 101.604 14.0764C101.818 14.3229 101.797 14.4328 101.499 14.5793C101.011 14.8225 100.547 15.1089 100.079 15.3854C99.8924 15.492 99.784 15.5319 99.5976 15.3321C99.1976 14.8795 98.6605 14.5648 98.0652 14.4341C97.4698 14.3035 96.8475 14.3637 96.2896 14.606C95.7335 14.8256 95.2582 15.2058 94.9266 15.6964C94.595 16.187 94.4226 16.7649 94.4322 17.3539C94.4322 19.0192 95.3202 20.2017 96.8963 20.5114C97.3091 20.5977 97.7359 20.5969 98.1484 20.509C98.5609 20.4212 98.9497 20.2483 99.2892 20.0018C99.4654 19.8753 99.6044 19.0026 99.4688 18.8694C99.3332 18.7361 99.2586 18.8194 99.1502 18.8194C98.5842 18.8194 98.0148 18.8194 97.4555 18.8194C97.1742 18.8194 97.0454 18.7794 97.0658 18.463C97.0932 18.0193 97.0932 17.5744 97.0658 17.1307C97.0658 16.8476 97.1234 16.7443 97.4386 16.7543C98.1131 16.7843 98.8113 16.7676 99.5061 16.7676Z" fill="white"/>
<path d="M57.4268 22.4663C56.0914 19.2488 54.7492 16.0346 53.424 12.8071C53.3971 12.7179 53.3376 12.6416 53.2568 12.593C53.1761 12.5444 53.0799 12.5269 52.9868 12.5439C52.2242 12.5439 51.4616 12.5673 50.699 12.5439C50.5595 12.5223 50.4168 12.5526 50.2989 12.629C50.181 12.7054 50.0964 12.8224 50.0618 12.957C48.9433 15.6849 47.8045 18.4061 46.6725 21.1307C46.437 21.6097 46.2475 22.1093 46.1064 22.6229H47.8011C48.8891 22.6229 48.8891 22.6229 49.289 21.6003C49.3367 21.5021 49.3774 21.4009 49.411 21.2972C49.4721 21.0374 49.6178 20.9641 49.8957 20.9641C50.7397 20.9841 53.5562 20.7843 53.9392 21.0574C54.2781 21.2972 54.3425 21.8868 54.5255 22.3198C54.5403 22.3484 54.5517 22.3785 54.5594 22.4097C54.584 22.4834 54.6341 22.5464 54.7009 22.5878C54.7677 22.6291 54.8472 22.6463 54.9255 22.6362C55.7491 22.6362 56.5795 22.6362 57.42 22.6362C57.429 22.58 57.4313 22.523 57.4268 22.4663ZM50.2753 18.8391C50.7702 17.5901 51.2548 16.3743 51.7666 15.0853C52.2784 16.371 52.7631 17.5967 53.2613 18.8391H50.2753Z" fill="white"/>
<path d="M38.5786 17.5535C38.5786 16.018 38.5786 14.4859 38.5786 12.9537C38.5786 12.6207 38.6599 12.5141 39.0056 12.5341C39.5886 12.5607 40.1716 12.5607 40.7545 12.5341C41.0731 12.5341 41.1206 12.634 41.1172 12.9104C41.1172 15.2819 41.1172 17.6501 41.1172 20.0216C41.1172 20.3547 41.1782 20.4746 41.5578 20.468C42.8051 20.4413 44.0524 20.468 45.2861 20.4513C45.5843 20.4513 45.6826 20.5279 45.6691 20.821C45.6453 21.3106 45.6521 21.8003 45.6691 22.2899C45.6691 22.5397 45.5877 22.623 45.3301 22.623C43.1915 22.623 41.0528 22.623 38.9141 22.623C38.6057 22.623 38.5752 22.4964 38.5752 22.2533C38.582 20.6811 38.5786 19.1356 38.5786 17.5535Z" fill="white"/>
<path d="M90.0451 17.6104C90.0451 19.1425 90.0451 20.6747 90.0451 22.2068C90.0451 22.5399 89.9468 22.6332 89.6113 22.6165C89.0283 22.5899 88.4453 22.6165 87.8624 22.6165C87.6149 22.6165 87.5234 22.5532 87.5234 22.2834C87.5234 19.1436 87.5234 16.0016 87.5234 12.8573C87.5234 12.5609 87.6488 12.5243 87.8996 12.5243C88.4826 12.5243 89.0656 12.5442 89.6485 12.5243C89.9671 12.5076 90.0485 12.6042 90.0451 12.9106C90.0383 14.4728 90.0451 16.0482 90.0451 17.6104Z" fill="white"/>
<defs>
<filter id="filter0_f_0_11125" x="2.31152" y="3.70215" width="25.0739" height="25.6265" filterUnits="userSpaceOnUse" color-interpolation-filters="sRGB">
<feFlood flood-opacity="0" result="BackgroundImageFix"/>
<feBlend mode="normal" in="SourceGraphic" in2="BackgroundImageFix" result="shape"/>
<feGaussianBlur stdDeviation="5" result="effect1_foregroundBlur_0_11125"/>
</filter>
<filter id="filter1_f_0_11125" x="8" y="8" width="15.6628" height="17.0063" filterUnits="userSpaceOnUse" color-interpolation-filters="sRGB">
<feFlood flood-opacity="0" result="BackgroundImageFix"/>
<feBlend mode="normal" in="SourceGraphic" in2="BackgroundImageFix" result="shape"/>
<feGaussianBlur stdDeviation="1" result="effect1_foregroundBlur_0_11125"/>
</filter>
<filter id="filter2_f_0_11125" x="9.17285" y="9.85449" width="12.3412" height="13.2896" filterUnits="userSpaceOnUse" color-interpolation-filters="sRGB">
<feFlood flood-opacity="0" result="BackgroundImageFix"/>
<feBlend mode="normal" in="SourceGraphic" in2="BackgroundImageFix" result="shape"/>
<feGaussianBlur stdDeviation="1" result="effect1_foregroundBlur_0_11125"/>
</filter>
<filter id="filter3_f_0_11125" x="10.3115" y="11.7021" width="9.07385" height="9.62646" filterUnits="userSpaceOnUse" color-interpolation-filters="sRGB">
<feFlood flood-opacity="0" result="BackgroundImageFix"/>
<feBlend mode="normal" in="SourceGraphic" in2="BackgroundImageFix" result="shape"/>
<feGaussianBlur stdDeviation="1" result="effect1_foregroundBlur_0_11125"/>
</filter>
<filter id="filter4_f_0_11125" x="0" y="0" width="31.6628" height="33.0063" filterUnits="userSpaceOnUse" color-interpolation-filters="sRGB">
<feFlood flood-opacity="0" result="BackgroundImageFix"/>
<feBlend mode="normal" in="SourceGraphic" in2="BackgroundImageFix" result="shape"/>
<feGaussianBlur stdDeviation="5" result="effect1_foregroundBlur_0_11125"/>
</filter>
</defs>
</svg>
